<svg width="204" height="44" viewBox="0 0 204 44" fill="none"
  xmlns="http://www.w3.org/2000/svg">
  <path d="M5.0027 15.3727C5.0027 13.6886 3.96254 12.7475 2.52612 12.7475C1.0897 12.7475 0 13.6886 0 15.3727C0 17.1063 1.0897 18.0474 2.52612 18.0474C3.96254 18.0474 5.0027 17.1063 5.0027 15.3727ZM5.0027 34.6405C5.0027 32.9564 3.96254 32.0153 2.52612 32.0153C1.0897 32.0153 0 32.9564 0 34.6405C0 36.3741 1.0897 37.3152 2.52612 37.3152C3.96254 37.3152 5.0027 36.3741 5.0027 34.6405Z" fill="white"/>
  <path d="M24.3286 10.9148C23.2884 10.6671 22.2482 10.5681 21.2081 10.5681C15.2147 10.5681 11.2027 13.6886 10.4597 18.9389C10.2616 20.3754 10.212 21.9108 10.212 23.9416C10.212 25.9724 10.2616 27.5079 10.4597 28.9443C11.2027 34.1947 15.3138 37.3152 21.4557 37.3152C22.7931 37.3152 24.0314 37.1666 25.1706 36.8694C25.9631 36.6713 26.607 35.9283 26.607 34.9377C26.607 34.69 26.5575 34.4424 26.4584 34.1947C26.2108 33.2041 25.4183 32.8573 24.5762 32.8573C24.3286 32.8573 24.0809 32.8574 23.8828 32.9069C23.1398 33.0555 22.3473 33.2041 21.4557 33.2041C17.5923 33.2041 15.4129 31.5695 14.9671 28.3995C14.769 27.0621 14.769 25.3781 14.769 23.9416C14.769 22.5052 14.769 20.8211 14.9671 19.4838C15.4129 16.3138 17.5923 14.6792 21.4557 14.6792C22.0997 14.6792 22.9912 14.7783 23.9323 14.9269C23.9819 14.9764 24.0809 14.9764 24.1305 14.9764C24.8734 14.9764 25.765 14.4316 25.765 12.8961C25.765 11.8559 25.2202 11.1129 24.3286 10.9148ZM31.7088 31.5695C32.006 30.7275 32.2537 29.8854 32.4022 28.9443C32.6499 27.3593 32.6499 25.5267 32.6499 23.9416V2.34582C32.6499 1.20659 31.6097 0.463615 30.3714 0.463615C29.1332 0.463615 28.093 1.20659 28.093 2.34582V23.9416C28.093 25.7248 28.0435 27.2107 27.8949 28.3995C27.7958 28.8948 27.6967 29.3406 27.5481 29.7369C27.4491 30.034 27.3995 30.3312 27.3995 30.6284C27.3995 31.4209 27.7463 32.263 28.5883 32.6097C28.9846 32.7583 29.3808 32.8573 29.7771 32.8573C30.5696 32.8573 31.3125 32.4611 31.7088 31.5695Z" fill="white"/>
  <path d="M42.3964 12.2522C42.0992 11.3111 41.2572 10.7167 40.118 10.7167C38.7311 10.7167 37.8395 11.6082 37.8395 12.6979C37.8395 12.8961 37.889 13.1437 37.9386 13.3914L43.3375 30.0836C43.6347 31.0742 44.4768 31.6191 45.616 31.6191C47.0029 31.6191 47.8944 30.777 47.8944 29.6873C47.8944 29.4892 47.8449 29.2415 47.7458 28.9939L42.3964 12.2522ZM47.1515 35.1853C47.2505 36.2255 48.1916 37.1666 49.4299 37.1666C51.2131 37.1666 53.2439 35.9778 53.8878 33.848L60.4755 13.3914C60.5746 13.1437 60.5746 12.8961 60.5746 12.6979C60.5746 11.6082 59.7325 10.7167 58.2961 10.7167C57.1569 10.7167 56.3644 11.3111 56.0176 12.2522L51.4112 26.6164L49.8757 31.6191C49.7767 31.9162 49.4795 32.263 49.2318 32.5106C48.5879 33.105 47.1515 33.3527 47.1515 34.9872C47.1515 35.0367 47.1515 35.1358 47.1515 35.1853Z" fill="white"/>
  <path d="M82.8959 32.4611C83.2427 32.6592 83.6885 32.7583 84.0847 32.7583C84.8772 32.7583 85.6202 32.4116 85.9669 31.52C86.6108 29.8359 86.7594 27.9042 86.7594 25.5762V22.3071C86.7594 18.3941 86.3136 15.5213 83.8866 13.2923C81.9548 11.5092 79.1315 10.5681 75.8129 10.5681C72.6924 10.5681 70.7607 10.8157 67.7888 11.6082C66.7981 11.8559 66.1542 12.5989 66.1542 13.5895C66.1542 13.7876 66.2038 14.0353 66.2533 14.283C66.5009 15.2736 67.4421 15.7689 68.3832 15.7689C68.6308 15.7689 68.8785 15.7194 69.0766 15.6698C71.6523 14.9764 73.1382 14.6792 75.8129 14.6792C77.9428 14.6792 79.5773 15.1745 80.6175 16.2147C81.5091 16.9577 82.2025 18.7903 82.2025 21.3165V25.5762C82.2025 27.4089 82.1034 28.7462 81.8063 29.7369C81.7072 30.034 81.6577 30.3312 81.6577 30.6284C81.6577 31.3219 82.0044 32.0648 82.8959 32.4611ZM80.8156 34.0461C80.5184 33.2536 79.825 32.8573 78.9334 32.8573C78.6858 32.8573 78.4381 32.8573 78.1409 32.9564C77.4475 33.105 76.655 33.2041 75.8129 33.2041C72.1476 33.2041 70.0177 32.1144 69.3243 29.935C69.1757 29.4892 69.1261 28.9443 69.1261 28.3004C69.1261 27.6565 69.1757 27.1117 69.3243 26.6164C69.671 25.5762 70.3149 23.2977 75.8129 23.2977C76.4568 23.2977 77.1998 23.3473 78.0418 23.3968C78.0418 23.3968 78.0914 23.3968 78.1409 23.3968C79.2306 23.3968 79.825 22.4557 79.924 21.5641C79.924 21.5146 79.924 21.4155 79.924 21.366C79.924 20.3258 79.3297 19.4838 78.24 19.3847C77.3484 19.3352 76.5064 19.2857 75.7139 19.2857C69.77 19.2857 66.2038 21.366 64.9655 25.5267C64.7178 26.3687 64.5692 27.3098 64.5692 28.3004C64.5692 29.2911 64.7178 30.2322 64.9655 31.0742C65.5103 32.9564 67.7392 37.3152 75.8129 37.3152C77.1998 37.3152 78.4876 37.1666 79.7259 36.8199C80.568 36.5722 80.9642 35.7302 80.9642 34.8882C80.9642 34.591 80.9147 34.2938 80.8156 34.0461Z" fill="white"/>
  <path d="M109.017 43.0609C110.206 43.0609 111.196 42.3179 111.196 41.0796V2.44488C111.196 1.20659 110.206 0.463615 109.017 0.463615C107.828 0.463615 106.838 1.20659 106.838 2.44488V41.0796C106.838 42.3179 107.828 43.0609 109.017 43.0609Z" fill="white"/>
  <path d="M128.043 4.17453C128.043 3.70299 127.752 3.43948 127.35 3.43948C126.948 3.43948 126.643 3.70299 126.643 4.17453C126.643 4.65994 126.948 4.92345 127.35 4.92345C127.752 4.92345 128.043 4.65994 128.043 4.17453ZM128.043 9.56953C128.043 9.09798 127.752 8.83447 127.35 8.83447C126.948 8.83447 126.643 9.09798 126.643 9.56953C126.643 10.0549 126.948 10.3184 127.35 10.3184C127.752 10.3184 128.043 10.0549 128.043 9.56953Z" fill="white"/>
  <path d="M133.455 2.92633C133.163 2.85699 132.872 2.82925 132.581 2.82925C130.903 2.82925 129.779 3.70299 129.571 5.17309C129.516 5.57529 129.502 6.00522 129.502 6.57385C129.502 7.14247 129.516 7.57241 129.571 7.97461C129.779 9.44471 130.931 10.3184 132.65 10.3184C133.025 10.3184 133.371 10.2768 133.69 10.1936C133.912 10.1381 134.093 9.93012 134.093 9.65274C134.093 9.58339 134.079 9.51405 134.051 9.44471C133.982 9.16733 133.76 9.07024 133.524 9.07024C133.455 9.07024 133.385 9.07025 133.33 9.08412C133.122 9.12572 132.9 9.16733 132.65 9.16733C131.568 9.16733 130.958 8.70965 130.833 7.82205C130.778 7.44759 130.778 6.97605 130.778 6.57385C130.778 6.17165 130.778 5.70011 130.833 5.32565C130.958 4.43804 131.568 3.98037 132.65 3.98037C132.831 3.98037 133.08 4.00811 133.344 4.04971C133.358 4.06358 133.385 4.06358 133.399 4.06358C133.607 4.06358 133.857 3.91102 133.857 3.48109C133.857 3.18984 133.704 2.98181 133.455 2.92633ZM135.521 8.70965C135.604 8.47388 135.674 8.23811 135.715 7.97461C135.785 7.5308 135.785 7.01765 135.785 6.57385V0.527017C135.785 0.208033 135.493 0 135.147 0C134.8 0 134.509 0.208033 134.509 0.527017V6.57385C134.509 7.07313 134.495 7.48919 134.453 7.82205C134.425 7.96074 134.398 8.08556 134.356 8.19651C134.328 8.27972 134.315 8.36293 134.315 8.44615C134.315 8.66805 134.412 8.90382 134.647 9.0009C134.758 9.04251 134.869 9.07024 134.98 9.07024C135.202 9.07024 135.41 8.9593 135.521 8.70965Z" fill="white"/>
  <path d="M142.716 8.95929C142.813 9.01477 142.938 9.04251 143.049 9.04251C143.271 9.04251 143.479 8.94543 143.576 8.69579C143.756 8.22424 143.798 7.68336 143.798 7.03152V6.11618C143.798 5.02053 143.673 4.21614 142.993 3.59204C142.452 3.09276 141.662 2.82925 140.733 2.82925C139.859 2.82925 139.318 2.8986 138.486 3.1205C138.209 3.18984 138.028 3.39788 138.028 3.67525C138.028 3.73073 138.042 3.80007 138.056 3.86942C138.125 4.14679 138.389 4.28548 138.652 4.28548C138.722 4.28548 138.791 4.27161 138.847 4.25775C139.568 4.06358 139.984 3.98037 140.733 3.98037C141.329 3.98037 141.787 4.11906 142.078 4.4103C142.328 4.61834 142.522 5.13148 142.522 5.8388V7.03152C142.522 7.54467 142.494 7.91913 142.411 8.19651C142.383 8.27972 142.369 8.36293 142.369 8.44615C142.369 8.64031 142.466 8.84834 142.716 8.95929ZM142.133 9.4031C142.05 9.1812 141.856 9.07024 141.606 9.07024C141.537 9.07024 141.468 9.07025 141.385 9.09798C141.19 9.13959 140.968 9.16733 140.733 9.16733C139.706 9.16733 139.11 8.86221 138.916 8.25198C138.874 8.12716 138.86 7.9746 138.86 7.79431C138.86 7.61401 138.874 7.46146 138.916 7.32277C139.013 7.03152 139.193 6.39355 140.733 6.39355C140.913 6.39355 141.121 6.40742 141.357 6.42129C141.357 6.42129 141.371 6.42129 141.385 6.42129C141.69 6.42129 141.856 6.15778 141.884 5.90814C141.884 5.89427 141.884 5.86654 141.884 5.85267C141.884 5.56142 141.717 5.32565 141.412 5.29791C141.163 5.28404 140.927 5.27017 140.705 5.27017C139.041 5.27017 138.042 5.85267 137.695 7.01765C137.626 7.25342 137.584 7.51693 137.584 7.79431C137.584 8.07169 137.626 8.33519 137.695 8.57097C137.848 9.09798 138.472 10.3184 140.733 10.3184C141.121 10.3184 141.482 10.2768 141.828 10.1798C142.064 10.1104 142.175 9.87464 142.175 9.63887C142.175 9.55566 142.161 9.47244 142.133 9.4031Z" fill="white"/>
  <path d="M147.02 1.01243C147.02 0.693444 146.729 0.485411 146.382 0.485411C146.036 0.485411 145.744 0.693444 145.744 1.01243V7.03152C145.744 8.12716 145.883 8.93156 146.549 9.55566C147.103 10.0549 147.88 10.3184 148.823 10.3184C149.364 10.3184 149.85 10.2352 150.252 10.0688C150.501 9.97172 150.626 9.77756 150.626 9.54179C150.626 9.47244 150.612 9.38923 150.585 9.30602C150.501 9.08412 150.307 8.93156 150.03 8.93156C149.947 8.93156 149.85 8.94543 149.752 8.98703C149.406 9.08411 149.087 9.16733 148.795 9.16733C148.268 9.16733 147.811 9.05638 147.464 8.73739C147.131 8.44615 147.02 7.98847 147.02 7.03152V1.01243ZM148.268 4.07745C147.908 4.07745 147.686 3.82781 147.686 3.50883C147.686 3.18984 147.908 2.92633 148.268 2.92633H150.016C150.363 2.92633 150.598 3.18984 150.598 3.50883C150.598 3.82781 150.363 4.07745 150.016 4.07745H148.268Z" fill="white"/>
  <path d="M156.937 8.95929C157.034 9.01477 157.159 9.04251 157.27 9.04251C157.492 9.04251 157.7 8.94543 157.797 8.69579C157.977 8.22424 158.019 7.68336 158.019 7.03152V6.11618C158.019 5.02053 157.894 4.21614 157.214 3.59204C156.673 3.09276 155.883 2.82925 154.954 2.82925C154.08 2.82925 153.539 2.8986 152.707 3.1205C152.43 3.18984 152.249 3.39788 152.249 3.67525C152.249 3.73073 152.263 3.80007 152.277 3.86942C152.346 4.14679 152.61 4.28548 152.873 4.28548C152.943 4.28548 153.012 4.27161 153.068 4.25775C153.789 4.06358 154.205 3.98037 154.954 3.98037C155.55 3.98037 156.008 4.11906 156.299 4.4103C156.549 4.61834 156.743 5.13148 156.743 5.8388V7.03152C156.743 7.54467 156.715 7.91913 156.632 8.19651C156.604 8.27972 156.59 8.36293 156.59 8.44615C156.59 8.64031 156.687 8.84834 156.937 8.95929ZM156.354 9.4031C156.271 9.1812 156.077 9.07024 155.827 9.07024C155.758 9.07024 155.689 9.07025 155.606 9.09798C155.411 9.13959 155.189 9.16733 154.954 9.16733C153.927 9.16733 153.331 8.86221 153.137 8.25198C153.095 8.12716 153.081 7.9746 153.081 7.79431C153.081 7.61401 153.095 7.46146 153.137 7.32277C153.234 7.03152 153.414 6.39355 154.954 6.39355C155.134 6.39355 155.342 6.40742 155.578 6.42129C155.578 6.42129 155.592 6.42129 155.606 6.42129C155.911 6.42129 156.077 6.15778 156.105 5.90814C156.105 5.89427 156.105 5.86654 156.105 5.85267C156.105 5.56142 155.938 5.32565 155.633 5.29791C155.384 5.28404 155.148 5.27017 154.926 5.27017C153.262 5.27017 152.263 5.85267 151.916 7.01765C151.847 7.25342 151.805 7.51693 151.805 7.79431C151.805 8.07169 151.847 8.33519 151.916 8.57097C152.069 9.09798 152.693 10.3184 154.954 10.3184C155.342 10.3184 155.703 10.2768 156.049 10.1798C156.285 10.1104 156.396 9.87464 156.396 9.63887C156.396 9.55566 156.382 9.47244 156.354 9.4031Z" fill="white"/>
  <path d="M130.97 20.1416C130.887 19.8781 130.651 19.7116 130.332 19.7116C129.943 19.7116 129.694 19.9613 129.694 20.2664C129.694 20.3219 129.708 20.3912 129.722 20.4606L131.233 25.1344C131.316 25.4117 131.552 25.5643 131.871 25.5643C132.26 25.5643 132.509 25.3285 132.509 25.0234C132.509 24.9679 132.495 24.8986 132.468 24.8293L130.97 20.1416ZM132.301 26.5629C132.329 26.8541 132.592 27.1176 132.939 27.1176C133.438 27.1176 134.007 26.7848 134.187 26.1884L136.032 20.4606C136.06 20.3912 136.06 20.3219 136.06 20.2664C136.06 19.9613 135.824 19.7116 135.422 19.7116C135.103 19.7116 134.881 19.8781 134.784 20.1416L133.494 24.1635L133.064 25.5643C133.036 25.6475 132.953 25.7446 132.884 25.8139C132.703 25.9804 132.301 26.0497 132.301 26.5074C132.301 26.5213 132.301 26.549 132.301 26.5629Z" fill="white"/>
  <path d="M142.31 25.8001C142.407 25.8555 142.532 25.8833 142.642 25.8833C142.864 25.8833 143.072 25.7862 143.169 25.5366C143.35 25.065 143.391 24.5241 143.391 23.8723V22.957C143.391 21.8613 143.267 21.0569 142.587 20.4328C142.046 19.9335 141.256 19.67 140.326 19.67C139.453 19.67 138.912 19.7394 138.08 19.9613C137.802 20.0306 137.622 20.2387 137.622 20.516C137.622 20.5715 137.636 20.6409 137.65 20.7102C137.719 20.9876 137.983 21.1263 138.246 21.1263C138.315 21.1263 138.385 21.1124 138.44 21.0985C139.161 20.9044 139.577 20.8211 140.326 20.8211C140.923 20.8211 141.38 20.9598 141.672 21.2511C141.921 21.4591 142.115 21.9723 142.115 22.6796V23.8723C142.115 24.3854 142.088 24.7599 142.004 25.0373C141.977 25.1205 141.963 25.2037 141.963 25.2869C141.963 25.4811 142.06 25.6891 142.31 25.8001ZM141.727 26.2439C141.644 26.022 141.45 25.911 141.2 25.911C141.131 25.911 141.061 25.911 140.978 25.9388C140.784 25.9804 140.562 26.0081 140.326 26.0081C139.3 26.0081 138.704 25.703 138.51 25.0928C138.468 24.9679 138.454 24.8154 138.454 24.6351C138.454 24.4548 138.468 24.3022 138.51 24.1635C138.607 23.8723 138.787 23.2343 140.326 23.2343C140.507 23.2343 140.715 23.2482 140.95 23.2621C140.95 23.2621 140.964 23.2621 140.978 23.2621C141.283 23.2621 141.45 22.9986 141.477 22.7489C141.477 22.7351 141.477 22.7073 141.477 22.6934C141.477 22.4022 141.311 22.1664 141.006 22.1387C140.756 22.1248 140.521 22.111 140.299 22.111C138.634 22.111 137.636 22.6934 137.289 23.8584C137.22 24.0942 137.178 24.3577 137.178 24.6351C137.178 24.9125 137.22 25.176 137.289 25.4117C137.442 25.9388 138.066 27.1592 140.326 27.1592C140.715 27.1592 141.075 27.1176 141.422 27.0205C141.658 26.9512 141.769 26.7154 141.769 26.4796C141.769 26.3964 141.755 26.3132 141.727 26.2439Z" fill="white"/>
  <path d="M147.002 27.1176C147.196 27.1176 147.363 27.0205 147.474 26.868C147.571 26.7432 147.613 26.6183 147.613 26.5074C147.613 26.341 147.529 26.1884 147.391 26.0775C146.877 25.6891 146.683 25.4117 146.683 24.649V17.3817C146.683 17.0627 146.392 16.8408 146.045 16.8408C145.699 16.8408 145.407 17.0627 145.407 17.3817V24.649C145.407 25.7307 145.74 26.3826 146.614 26.9928C146.725 27.0621 146.877 27.1176 147.002 27.1176Z" fill="white"/>
  <path d="M149.823 17.3262C149.449 17.3262 149.144 17.6313 149.144 18.0058C149.144 18.3941 149.449 18.6992 149.823 18.6992C150.212 18.6992 150.517 18.3941 150.517 18.0058C150.517 17.6313 150.212 17.3262 149.823 17.3262ZM149.823 27.1176C150.184 27.1176 150.461 26.9096 150.461 26.5906V20.2387C150.461 19.9197 150.184 19.7116 149.823 19.7116C149.477 19.7116 149.185 19.9197 149.185 20.2387V26.5906C149.185 26.9096 149.477 27.1176 149.823 27.1176Z" fill="white"/>
  <path d="M156.411 19.7671C156.12 19.6978 155.829 19.67 155.538 19.67C153.86 19.67 152.736 20.5438 152.528 22.0139C152.473 22.4161 152.459 22.846 152.459 23.4146C152.459 23.9832 152.473 24.4132 152.528 24.8154C152.736 26.2855 153.887 27.1592 155.607 27.1592C155.982 27.1592 156.328 27.1176 156.647 27.0344C156.869 26.9789 157.049 26.7709 157.049 26.4935C157.049 26.4242 157.036 26.3548 157.008 26.2855C156.938 26.0081 156.717 25.911 156.481 25.911C156.411 25.911 156.342 25.911 156.287 25.9249C156.079 25.9665 155.857 26.0081 155.607 26.0081C154.525 26.0081 153.915 25.5504 153.79 24.6628C153.735 24.2884 153.735 23.8168 153.735 23.4146C153.735 23.0124 153.735 22.5409 153.79 22.1664C153.915 21.2788 154.525 20.8211 155.607 20.8211C155.787 20.8211 156.037 20.8489 156.3 20.8905C156.314 20.9044 156.342 20.9044 156.356 20.9044C156.564 20.9044 156.814 20.7518 156.814 20.3219C156.814 20.0306 156.661 19.8226 156.411 19.7671ZM158.478 25.5504C158.561 25.3147 158.63 25.0789 158.672 24.8154C158.741 24.3716 158.741 23.8584 158.741 23.4146V17.3678C158.741 17.0488 158.45 16.8408 158.103 16.8408C157.757 16.8408 157.465 17.0488 157.465 17.3678V23.4146C157.465 23.9139 157.452 24.33 157.41 24.6628C157.382 24.8015 157.355 24.9263 157.313 25.0373C157.285 25.1205 157.271 25.2037 157.271 25.2869C157.271 25.5088 157.368 25.7446 157.604 25.8417C157.715 25.8833 157.826 25.911 157.937 25.911C158.159 25.911 158.367 25.8001 158.478 25.5504Z" fill="white"/>
  <path d="M165.673 25.8001C165.77 25.8555 165.895 25.8833 166.006 25.8833C166.227 25.8833 166.435 25.7862 166.533 25.5366C166.713 25.065 166.754 24.5241 166.754 23.8723V22.957C166.754 21.8613 166.63 21.0569 165.95 20.4328C165.409 19.9335 164.619 19.67 163.689 19.67C162.816 19.67 162.275 19.7394 161.443 19.9613C161.165 20.0306 160.985 20.2387 160.985 20.516C160.985 20.5715 160.999 20.6409 161.013 20.7102C161.082 20.9876 161.346 21.1263 161.609 21.1263C161.678 21.1263 161.748 21.1124 161.803 21.0985C162.524 20.9044 162.941 20.8211 163.689 20.8211C164.286 20.8211 164.743 20.9598 165.035 21.2511C165.284 21.4591 165.479 21.9723 165.479 22.6796V23.8723C165.479 24.3854 165.451 24.7599 165.368 25.0373C165.34 25.1205 165.326 25.2037 165.326 25.2869C165.326 25.4811 165.423 25.6891 165.673 25.8001ZM165.09 26.2439C165.007 26.022 164.813 25.911 164.563 25.911C164.494 25.911 164.425 25.911 164.341 25.9388C164.147 25.9804 163.925 26.0081 163.689 26.0081C162.663 26.0081 162.067 25.703 161.873 25.0928C161.831 24.9679 161.817 24.8154 161.817 24.6351C161.817 24.4548 161.831 24.3022 161.873 24.1635C161.97 23.8723 162.15 23.2343 163.689 23.2343C163.87 23.2343 164.078 23.2482 164.314 23.2621C164.314 23.2621 164.327 23.2621 164.341 23.2621C164.646 23.2621 164.813 22.9986 164.841 22.7489C164.841 22.7351 164.841 22.7073 164.841 22.6934C164.841 22.4022 164.674 22.1664 164.369 22.1387C164.119 22.1248 163.884 22.111 163.662 22.111C161.997 22.111 160.999 22.6934 160.652 23.8584C160.583 24.0942 160.541 24.3577 160.541 24.6351C160.541 24.9125 160.583 25.176 160.652 25.4117C160.805 25.9388 161.429 27.1592 163.689 27.1592C164.078 27.1592 164.438 27.1176 164.785 27.0205C165.021 26.9512 165.132 26.7154 165.132 26.4796C165.132 26.3964 165.118 26.3132 165.09 26.2439Z" fill="white"/>
  <path d="M169.977 17.8532C169.977 17.5342 169.686 17.3262 169.339 17.3262C168.992 17.3262 168.701 17.5342 168.701 17.8532V23.8723C168.701 24.9679 168.84 25.7723 169.505 26.3964C170.06 26.8957 170.837 27.1592 171.78 27.1592C172.321 27.1592 172.806 27.076 173.208 26.9096C173.458 26.8125 173.583 26.6183 173.583 26.3826C173.583 26.3132 173.569 26.23 173.541 26.1468C173.458 25.9249 173.264 25.7723 172.987 25.7723C172.903 25.7723 172.806 25.7862 172.709 25.8278C172.362 25.9249 172.044 26.0081 171.752 26.0081C171.225 26.0081 170.768 25.8972 170.421 25.5782C170.088 25.2869 169.977 24.8293 169.977 23.8723V17.8532ZM171.225 20.9182C170.865 20.9182 170.643 20.6686 170.643 20.3496C170.643 20.0306 170.865 19.7671 171.225 19.7671H172.973C173.319 19.7671 173.555 20.0306 173.555 20.3496C173.555 20.6686 173.319 20.9182 172.973 20.9182H171.225Z" fill="white"/>
  <path d="M175.719 17.3262C175.345 17.3262 175.04 17.6313 175.04 18.0058C175.04 18.3941 175.345 18.6992 175.719 18.6992C176.108 18.6992 176.413 18.3941 176.413 18.0058C176.413 17.6313 176.108 17.3262 175.719 17.3262ZM175.719 27.1176C176.08 27.1176 176.357 26.9096 176.357 26.5906V20.2387C176.357 19.9197 176.08 19.7116 175.719 19.7116C175.372 19.7116 175.081 19.9197 175.081 20.2387V26.5906C175.081 26.9096 175.372 27.1176 175.719 27.1176Z" fill="white"/>
  <path d="M179.631 23.4146C179.631 23.0124 179.631 22.5409 179.686 22.1664C179.811 21.2788 180.421 20.8211 181.503 20.8211C181.822 20.8211 182.085 20.8905 182.335 20.946C182.418 20.9598 182.501 20.9737 182.585 20.9737C182.807 20.9737 182.973 20.8905 183.098 20.6686C183.139 20.5715 183.153 20.4883 183.153 20.3912C183.153 20.1554 183.015 19.9474 182.779 19.8642C182.39 19.7394 181.961 19.67 181.503 19.67C179.783 19.67 178.632 20.5438 178.424 22.0139C178.368 22.4161 178.355 22.846 178.355 23.4146C178.355 23.8584 178.355 24.3716 178.424 24.8154C178.452 24.9957 178.493 25.176 178.549 25.3424C178.632 25.5782 178.854 25.7169 179.104 25.7169C179.201 25.7169 179.298 25.6891 179.395 25.6475C179.644 25.5504 179.769 25.3424 179.769 25.1205C179.769 25.065 179.769 25.0095 179.755 24.9679C179.728 24.8709 179.7 24.7738 179.686 24.6628C179.644 24.33 179.631 23.9139 179.631 23.4146ZM184.637 23.4146C184.637 22.9708 184.637 22.4577 184.568 22.0139C184.54 21.8336 184.499 21.6533 184.443 21.4869C184.36 21.2511 184.138 21.1124 183.888 21.1124C183.791 21.1124 183.694 21.1401 183.597 21.1817C183.347 21.2788 183.223 21.4869 183.223 21.7088C183.223 21.7642 183.223 21.8197 183.236 21.8613C183.264 21.9584 183.292 22.0555 183.306 22.1664C183.347 22.4993 183.361 22.9153 183.361 23.4146C183.361 23.8168 183.361 24.2884 183.306 24.6628C183.181 25.5504 182.571 26.0081 181.503 26.0081C181.184 26.0081 180.906 25.9388 180.657 25.8833C180.574 25.8694 180.49 25.8555 180.407 25.8555C180.185 25.8555 180.019 25.9388 179.894 26.1607C179.852 26.2577 179.839 26.341 179.839 26.438C179.839 26.6738 179.977 26.8818 180.213 26.9651C180.601 27.0899 181.031 27.1592 181.503 27.1592C183.209 27.1592 184.36 26.2855 184.568 24.8154C184.623 24.4132 184.637 23.9832 184.637 23.4146Z" fill="white"/>
  <path d="M188.16 20.5992C188.285 20.8766 188.493 20.9598 188.687 20.9598C188.742 20.9598 188.798 20.946 188.853 20.9321C189.089 20.8766 189.353 20.8211 189.658 20.8211C190.254 20.8211 190.712 20.9598 191.017 21.2511C191.336 21.5423 191.461 22 191.461 22.957V26.5906C191.461 26.9096 191.738 27.1176 192.099 27.1176C192.445 27.1176 192.737 26.9096 192.737 26.5906V22.957C192.737 21.8613 192.598 21.0569 191.918 20.4328C191.378 19.9335 190.601 19.67 189.658 19.67C189.214 19.67 188.812 19.7255 188.451 19.8365C188.243 19.9058 188.105 20.1138 188.105 20.3496C188.105 20.4328 188.132 20.516 188.16 20.5992ZM187.855 26.5906C187.855 26.9096 187.564 27.1176 187.217 27.1176C186.87 27.1176 186.579 26.9096 186.579 26.5906V21.4036C186.579 21.0847 186.87 20.8766 187.217 20.8766C187.564 20.8766 187.855 21.0847 187.855 21.4036V26.5906Z" fill="white"/>
  <path d="M135.172 42.6409C135.269 42.6963 135.394 42.7241 135.505 42.7241C135.727 42.7241 135.935 42.627 136.032 42.3773C136.212 41.9058 136.254 41.3649 136.254 40.7131V39.7977C136.254 38.7021 136.129 37.8977 135.449 37.2736C134.908 36.7743 134.118 36.5108 133.189 36.5108C132.315 36.5108 131.774 36.5802 130.942 36.8021C130.665 36.8714 130.484 37.0794 130.484 37.3568C130.484 37.4123 130.498 37.4816 130.512 37.551C130.581 37.8284 130.845 37.967 131.108 37.967C131.178 37.967 131.247 37.9532 131.303 37.9393C132.024 37.7451 132.44 37.6619 133.189 37.6619C133.785 37.6619 134.243 37.8006 134.534 38.0919C134.784 38.2999 134.978 38.813 134.978 39.5204V40.7131C134.978 41.2262 134.95 41.6007 134.867 41.8781C134.839 41.9613 134.825 42.0445 134.825 42.1277C134.825 42.3219 134.922 42.5299 135.172 42.6409ZM134.59 43.0847C134.506 42.8628 134.312 42.7518 134.062 42.7518C133.993 42.7518 133.924 42.7518 133.841 42.7795C133.646 42.8211 133.425 42.8489 133.189 42.8489C132.162 42.8489 131.566 42.5438 131.372 41.9335C131.33 41.8087 131.316 41.6562 131.316 41.4759C131.316 41.2956 131.33 41.143 131.372 41.0043C131.469 40.7131 131.649 40.0751 133.189 40.0751C133.369 40.0751 133.577 40.089 133.813 40.1028C133.813 40.1028 133.827 40.1028 133.841 40.1028C134.146 40.1028 134.312 39.8393 134.34 39.5897C134.34 39.5758 134.34 39.5481 134.34 39.5342C134.34 39.243 134.173 39.0072 133.868 38.9795C133.619 38.9656 133.383 38.9517 133.161 38.9517C131.497 38.9517 130.498 39.5342 130.151 40.6992C130.082 40.935 130.041 41.1985 130.041 41.4759C130.041 41.7532 130.082 42.0168 130.151 42.2525C130.304 42.7795 130.928 44 133.189 44C133.577 44 133.938 43.9584 134.284 43.8613C134.52 43.792 134.631 43.5562 134.631 43.3204C134.631 43.2372 134.617 43.154 134.59 43.0847Z" fill="white"/>
  <path d="M143.082 42.2664C143.082 42.5854 143.36 42.7934 143.72 42.7934C144.067 42.7934 144.358 42.5854 144.358 42.2664V37.0794C144.358 36.7604 144.067 36.5524 143.72 36.5524C143.36 36.5524 143.082 36.7604 143.082 37.0794V42.2664ZM142.777 43.0708C142.805 43.154 142.819 43.2372 142.819 43.3204C142.819 43.5562 142.694 43.7642 142.486 43.8336C142.111 43.9445 141.709 44 141.279 44C140.336 44 139.56 43.7365 139.005 43.2372C138.339 42.6131 138.2 41.8087 138.2 40.7131V37.0794C138.2 36.7604 138.492 36.5524 138.838 36.5524C139.185 36.5524 139.476 36.7604 139.476 37.0794V40.7131C139.476 41.67 139.587 42.1277 139.92 42.4189C140.225 42.6963 140.683 42.8489 141.279 42.8489C141.584 42.8489 141.848 42.7934 142.084 42.7379C142.139 42.7241 142.195 42.7102 142.25 42.7102C142.444 42.7102 142.652 42.7934 142.777 43.0708Z" fill="white"/>
  <path d="M147.711 34.694C147.711 34.375 147.42 34.167 147.073 34.167C146.726 34.167 146.435 34.375 146.435 34.694V40.7131C146.435 41.8087 146.574 42.6131 147.239 43.2372C147.794 43.7365 148.571 44 149.514 44C150.055 44 150.54 43.9168 150.942 43.7504C151.192 43.6533 151.317 43.4591 151.317 43.2233C151.317 43.154 151.303 43.0708 151.275 42.9876C151.192 42.7657 150.998 42.6131 150.721 42.6131C150.637 42.6131 150.54 42.627 150.443 42.6686C150.096 42.7657 149.777 42.8489 149.486 42.8489C148.959 42.8489 148.502 42.7379 148.155 42.4189C147.822 42.1277 147.711 41.67 147.711 40.7131V34.694ZM148.959 37.759C148.599 37.759 148.377 37.5094 148.377 37.1904C148.377 36.8714 148.599 36.6079 148.959 36.6079H150.707C151.053 36.6079 151.289 36.8714 151.289 37.1904C151.289 37.5094 151.053 37.759 150.707 37.759H148.959Z" fill="white"/>
  <path d="M153.857 40.2554C153.857 39.8532 153.857 39.3817 153.912 39.0072C154.037 38.1196 154.647 37.6619 155.729 37.6619C156.048 37.6619 156.311 37.7313 156.561 37.7867C156.644 37.8006 156.727 37.8145 156.811 37.8145C157.033 37.8145 157.199 37.7313 157.324 37.5094C157.365 37.4123 157.379 37.3291 157.379 37.232C157.379 36.9962 157.241 36.7882 157.005 36.705C156.617 36.5802 156.187 36.5108 155.729 36.5108C154.009 36.5108 152.858 37.3845 152.65 38.8546C152.595 39.2568 152.581 39.6868 152.581 40.2554C152.581 40.6992 152.581 41.2124 152.65 41.6562C152.678 41.8365 152.719 42.0168 152.775 42.1832C152.858 42.4189 153.08 42.5576 153.33 42.5576C153.427 42.5576 153.524 42.5299 153.621 42.4883C153.871 42.3912 153.995 42.1832 153.995 41.9613C153.995 41.9058 153.995 41.8503 153.981 41.8087C153.954 41.7116 153.926 41.6146 153.912 41.5036C153.87 41.1707 153.857 40.7547 153.857 40.2554ZM158.863 40.2554C158.863 39.8116 158.863 39.2985 158.794 38.8546C158.766 38.6744 158.725 38.4941 158.669 38.3276C158.586 38.0919 158.364 37.9532 158.114 37.9532C158.017 37.9532 157.92 37.9809 157.823 38.0225C157.574 38.1196 157.449 38.3276 157.449 38.5495C157.449 38.605 157.449 38.6605 157.463 38.7021C157.49 38.7992 157.518 38.8963 157.532 39.0072C157.574 39.3401 157.587 39.7561 157.587 40.2554C157.587 40.6576 157.587 41.1291 157.532 41.5036C157.407 42.3912 156.797 42.8489 155.729 42.8489C155.41 42.8489 155.133 42.7795 154.883 42.7241C154.8 42.7102 154.717 42.6963 154.633 42.6963C154.411 42.6963 154.245 42.7795 154.12 43.0014C154.079 43.0985 154.065 43.1817 154.065 43.2788C154.065 43.5146 154.203 43.7226 154.439 43.8058C154.827 43.9307 155.257 44 155.729 44C157.435 44 158.586 43.1263 158.794 41.6562C158.849 41.254 158.863 40.824 158.863 40.2554Z" fill="white"/>
  <path d="M166.158 37.3429C166.214 37.5371 166.408 37.7174 166.713 37.7174C166.769 37.7174 166.824 37.7035 166.866 37.7035C166.977 37.6758 167.102 37.6619 167.226 37.6619C168.391 37.6619 168.516 38.5218 168.516 38.8824V43.4314C168.516 43.7504 168.807 43.9584 169.154 43.9584C169.515 43.9584 169.792 43.7504 169.792 43.4314V38.8824C169.792 38.2305 169.57 37.6481 169.14 37.2181C168.669 36.7604 168.017 36.5108 167.226 36.5108C166.991 36.5108 166.769 36.5385 166.561 36.5802C166.283 36.6495 166.131 36.8575 166.131 37.1349C166.131 37.1904 166.145 37.2597 166.158 37.3429ZM162.303 37.3429C162.344 37.5371 162.553 37.7174 162.858 37.7174C162.913 37.7174 162.955 37.7035 163.01 37.7035C163.121 37.6758 163.246 37.6619 163.371 37.6619C164.536 37.6619 164.661 38.5218 164.661 38.8824V43.4314C164.661 43.7504 164.952 43.9584 165.299 43.9584C165.659 43.9584 165.937 43.7504 165.937 43.4314V38.8824C165.937 38.2305 165.701 37.6481 165.285 37.2181C164.813 36.7604 164.161 36.5108 163.371 36.5108C163.121 36.5108 162.913 36.5385 162.705 36.5802C162.428 36.6495 162.275 36.8575 162.275 37.1349C162.275 37.1904 162.289 37.2597 162.303 37.3429ZM162.081 38.2444C162.081 37.9254 161.79 37.7174 161.443 37.7174C161.096 37.7174 160.805 37.9254 160.805 38.2444V43.4314C160.805 43.7504 161.096 43.9584 161.443 43.9584C161.79 43.9584 162.081 43.7504 162.081 43.4314V38.2444Z" fill="white"/>
  <path d="M176.724 42.6409C176.822 42.6963 176.946 42.7241 177.057 42.7241C177.279 42.7241 177.487 42.627 177.584 42.3773C177.765 41.9058 177.806 41.3649 177.806 40.7131V39.7977C177.806 38.7021 177.681 37.8977 177.002 37.2736C176.461 36.7743 175.67 36.5108 174.741 36.5108C173.867 36.5108 173.327 36.5802 172.494 36.8021C172.217 36.8714 172.037 37.0794 172.037 37.3568C172.037 37.4123 172.051 37.4816 172.065 37.551C172.134 37.8284 172.397 37.967 172.661 37.967C172.73 37.967 172.8 37.9532 172.855 37.9393C173.576 37.7451 173.992 37.6619 174.741 37.6619C175.338 37.6619 175.795 37.8006 176.087 38.0919C176.336 38.2999 176.53 38.813 176.53 39.5204V40.7131C176.53 41.2262 176.503 41.6007 176.419 41.8781C176.392 41.9613 176.378 42.0445 176.378 42.1277C176.378 42.3219 176.475 42.5299 176.724 42.6409ZM176.142 43.0847C176.059 42.8628 175.865 42.7518 175.615 42.7518C175.546 42.7518 175.476 42.7518 175.393 42.7795C175.199 42.8211 174.977 42.8489 174.741 42.8489C173.715 42.8489 173.119 42.5438 172.924 41.9335C172.883 41.8087 172.869 41.6562 172.869 41.4759C172.869 41.2956 172.883 41.143 172.924 41.0043C173.021 40.7131 173.202 40.0751 174.741 40.0751C174.922 40.0751 175.13 40.089 175.365 40.1028C175.365 40.1028 175.379 40.1028 175.393 40.1028C175.698 40.1028 175.865 39.8393 175.892 39.5897C175.892 39.5758 175.892 39.5481 175.892 39.5342C175.892 39.243 175.726 39.0072 175.421 38.9795C175.171 38.9656 174.935 38.9517 174.713 38.9517C173.049 38.9517 172.051 39.5342 171.704 40.6992C171.635 40.935 171.593 41.1985 171.593 41.4759C171.593 41.7532 171.635 42.0168 171.704 42.2525C171.856 42.7795 172.481 44 174.741 44C175.13 44 175.49 43.9584 175.837 43.8613C176.073 43.792 176.184 43.5562 176.184 43.3204C176.184 43.2372 176.17 43.154 176.142 43.0847Z" fill="white"/>
  <path d="M181.029 34.694C181.029 34.375 180.738 34.167 180.391 34.167C180.044 34.167 179.753 34.375 179.753 34.694V40.7131C179.753 41.8087 179.892 42.6131 180.557 43.2372C181.112 43.7365 181.889 44 182.832 44C183.373 44 183.858 43.9168 184.26 43.7504C184.51 43.6533 184.635 43.4591 184.635 43.2233C184.635 43.154 184.621 43.0708 184.593 42.9876C184.51 42.7657 184.316 42.6131 184.038 42.6131C183.955 42.6131 183.858 42.627 183.761 42.6686C183.414 42.7657 183.095 42.8489 182.804 42.8489C182.277 42.8489 181.819 42.7379 181.473 42.4189C181.14 42.1277 181.029 41.67 181.029 40.7131V34.694ZM182.277 37.759C181.916 37.759 181.695 37.5094 181.695 37.1904C181.695 36.8714 181.916 36.6079 182.277 36.6079H184.024C184.371 36.6079 184.607 36.8714 184.607 37.1904C184.607 37.5094 184.371 37.759 184.024 37.759H182.277Z" fill="white"/>
  <path d="M186.771 34.167C186.396 34.167 186.091 34.4721 186.091 34.8465C186.091 35.2349 186.396 35.54 186.771 35.54C187.159 35.54 187.464 35.2349 187.464 34.8465C187.464 34.4721 187.159 34.167 186.771 34.167ZM186.771 43.9584C187.132 43.9584 187.409 43.7504 187.409 43.4314V37.0794C187.409 36.7604 187.132 36.5524 186.771 36.5524C186.424 36.5524 186.133 36.7604 186.133 37.0794V43.4314C186.133 43.7504 186.424 43.9584 186.771 43.9584Z" fill="white"/>
  <path d="M190.682 40.2554C190.682 39.8532 190.682 39.3817 190.738 39.0072C190.863 38.1196 191.473 37.6619 192.555 37.6619C192.874 37.6619 193.137 37.7313 193.387 37.7867C193.47 37.8006 193.553 37.8145 193.636 37.8145C193.858 37.8145 194.025 37.7313 194.15 37.5094C194.191 37.4123 194.205 37.3291 194.205 37.232C194.205 36.9962 194.066 36.7882 193.831 36.705C193.442 36.5802 193.012 36.5108 192.555 36.5108C190.835 36.5108 189.684 37.3845 189.476 38.8546C189.42 39.2568 189.406 39.6868 189.406 40.2554C189.406 40.6992 189.406 41.2124 189.476 41.6562C189.503 41.8365 189.545 42.0168 189.601 42.1832C189.684 42.4189 189.906 42.5576 190.155 42.5576C190.252 42.5576 190.349 42.5299 190.447 42.4883C190.696 42.3912 190.821 42.1832 190.821 41.9613C190.821 41.9058 190.821 41.8503 190.807 41.8087C190.779 41.7116 190.752 41.6146 190.738 41.5036C190.696 41.1707 190.682 40.7547 190.682 40.2554ZM195.689 40.2554C195.689 39.8116 195.689 39.2985 195.62 38.8546C195.592 38.6744 195.55 38.4941 195.495 38.3276C195.412 38.0919 195.19 37.9532 194.94 37.9532C194.843 37.9532 194.746 37.9809 194.649 38.0225C194.399 38.1196 194.274 38.3276 194.274 38.5495C194.274 38.605 194.274 38.6605 194.288 38.7021C194.316 38.7992 194.344 38.8963 194.358 39.0072C194.399 39.3401 194.413 39.7561 194.413 40.2554C194.413 40.6576 194.413 41.1291 194.358 41.5036C194.233 42.3912 193.622 42.8489 192.555 42.8489C192.236 42.8489 191.958 42.7795 191.709 42.7241C191.625 42.7102 191.542 42.6963 191.459 42.6963C191.237 42.6963 191.071 42.7795 190.946 43.0014C190.904 43.0985 190.89 43.1817 190.89 43.2788C190.89 43.5146 191.029 43.7226 191.265 43.8058C191.653 43.9307 192.083 44 192.555 44C194.26 44 195.412 43.1263 195.62 41.6562C195.675 41.254 195.689 40.824 195.689 40.2554Z" fill="white"/>
  <path d="M199.212 37.44C199.337 37.7174 199.545 37.8006 199.739 37.8006C199.794 37.8006 199.85 37.7867 199.905 37.7729C200.141 37.7174 200.404 37.6619 200.71 37.6619C201.306 37.6619 201.764 37.8006 202.069 38.0919C202.388 38.3831 202.513 38.8408 202.513 39.7977V43.4314C202.513 43.7504 202.79 43.9584 203.151 43.9584C203.497 43.9584 203.788 43.7504 203.788 43.4314V39.7977C203.788 38.7021 203.65 37.8977 202.97 37.2736C202.429 36.7743 201.653 36.5108 200.71 36.5108C200.266 36.5108 199.864 36.5663 199.503 36.6772C199.295 36.7466 199.156 36.9546 199.156 37.1904C199.156 37.2736 199.184 37.3568 199.212 37.44ZM198.907 43.4314C198.907 43.7504 198.615 43.9584 198.269 43.9584C197.922 43.9584 197.631 43.7504 197.631 43.4314V38.2444C197.631 37.9254 197.922 37.7174 198.269 37.7174C198.615 37.7174 198.907 37.9254 198.907 38.2444V43.4314Z" fill="white"/>
</svg>
